<svg><path d="M218.32,8.07Q141.93,26.83,65.47,45.32C61,46.4,60.83,49,60.83,52.52q-0.14,79.88-.39,159.77Q60.22,328,60,443.67c0,4.63,1.06,6.92,5.79,8.51Q152,481.1,238,510.45c1.55,0.52,3.15.89,5.49,1.54,0.2-3.72.51-7,.54-10.23q0.82-82.88,1.59-165.76,1.46-140.72,3-281.44c0.2-18.19.56-36.37,0.85-54.56h-1C238.47,2.69,228.45,5.58,218.32,8.07Zm9.08,262.32c-4.93,5-12.1,4.67-16.49-1.07-5.07-6.61-5.77-14-2.51-21.62,2.06-4.8,5.36-8.4,12.7-8.72,1.37,0.77,4.3,1.74,6.3,3.67,7,6.7,6.8,20.88,0,27.73h0Z"></path><path d="M341.09,58.91c4.46,0,6.06,1.06,6,5.82-0.22,30.38-.07,60.77-0.07,91.16v10.26c8,0,16.11.13,24-.22,0.76,0,2-3.07,2-4.73,0.15-18.86.11-37.73,0.11-56.59V38.5c0-3,0-5.36-4.34-5.33-30.38.17-60.77,0.09-91.15,0.11a23.53,23.53,0,0,0-2.57.25V59h6C301,59,321,59.12,341.09,58.91Z"></path><path d="M367.76,346c-6.78.27-13.72,0.07-20.72,0.07V437H271v26.29c2,0.09,3.06.25,4.52,0.25,30.69,0,61.35-.09,92,0.12,4.53,0,5.58-1.38,5.56-5.64q-0.21-53.3,0-106.59C373.21,347.23,371.87,345.88,367.76,346Z"></path><path d="M452,239.52c-0.83,4.38-3.57,7.3-7,9.87q-22.88,17-45.6,34.2c-7,5.29-15.82,2.65-18.81-3.9a16.32,16.32,0,0,1-1.26-5.84c-0.19-3.77-.06-7.56-0.06-11.56-18.74.17-35.61,5.61-50.53,16.72a84.43,84.43,0,0,0-30.66,43.48c-16.39-50.14,21.42-108.7,81.19-108.86,0-3.95,0-7.9,0-11.85a11.9,11.9,0,0,1,4.4-9.46c4.51-3.76,10.44-3.76,15.54,0,5.93,4.4,11.82,8.86,17.73,13.29,9.34,7,18.65,14.07,28.05,21,3.48,2.56,6.21,5.5,7,9.87v3Z"></path></svg>